<?xml version="1.0" encoding="UTF-8"?>
<svg width="248px" height="40px" viewBox="0 0 248 40" version="1.1" xmlns="http://www.w3.org/2000/svg" xmlns:xlink="http://www.w3.org/1999/xlink">
    <!-- Generator: Sketch 52.6 (67491) - http://www.bohemiancoding.com/sketch -->
    <title>DNC_logo@1x</title>
    <desc>Created with Sketch.</desc>
    <g id="Logo" stroke="none" stroke-width="1" fill="none" fill-rule="evenodd">
        <g id="DNC_logo" transform="translate(1.000000, 1.000000)" fill="#FFFFFF" fill-rule="nonzero">
            <g id="Group" transform="translate(45.600000, 14.355556)">
                <path d="M0.425349794,2.62395664 C0.425349794,1.60650407 1.22288066,0.803252033 2.23308642,0.803252033 L8.08164609,0.803252033 C14.5150617,0.803252033 18.9812346,5.24791328 18.9812346,11.084878 L18.9812346,11.1384282 C18.9812346,16.975393 14.5150617,21.4736043 8.08164609,21.4736043 L2.23308642,21.4736043 C1.22288066,21.4736043 0.425349794,20.6703523 0.425349794,19.6528997 L0.425349794,2.62395664 Z M8.08164609,18.1534959 C12.3883128,18.1534959 15.2062551,15.2082385 15.2062551,11.1919783 L15.2062551,11.1384282 C15.2062551,7.06861789 12.3883128,4.12336043 8.08164609,4.12336043 L4.04082305,4.12336043 L4.04082305,18.1534959 L8.08164609,18.1534959 Z" id="Shape"></path>
                <path d="M21.5865021,12.6913821 L21.5865021,2.46330623 C21.5865021,1.44585366 22.3840329,0.642601626 23.3942387,0.642601626 C24.4044444,0.642601626 25.2019753,1.44585366 25.2019753,2.46330623 L25.2019753,12.5842818 C25.2019753,16.4398916 27.1692181,18.4747967 30.4125103,18.4747967 C33.6026337,18.4747967 35.5698765,16.5469919 35.5698765,12.7449322 L35.5698765,2.51685637 C35.5698765,1.49940379 36.3674074,0.696151762 37.3776132,0.696151762 C38.3878189,0.696151762 39.1853498,1.49940379 39.1853498,2.51685637 L39.1853498,12.5842818 C39.1853498,18.7425474 35.7293827,21.8484553 30.3593416,21.8484553 C24.9361317,21.7949051 21.5865021,18.6889973 21.5865021,12.6913821 Z" id="Shape"></path>
                <path d="M41.6842798,11.1919783 L41.6842798,11.1384282 C41.6842798,5.24791328 46.0441152,0.428401084 52.264856,0.428401084 C55.4549794,0.428401084 57.5285597,1.39230352 59.2831276,2.78460705 C59.6553086,3.10590786 59.974321,3.58785908 59.974321,4.2304607 C59.974321,5.24791328 59.1767901,5.99761518 58.1665844,5.99761518 C57.6880658,5.99761518 57.3158848,5.83696477 57.1032099,5.62276423 C55.720823,4.44466125 54.17893,3.74850949 52.2116872,3.74850949 C48.3303704,3.74850949 45.4592593,7.01506775 45.4592593,11.0313279 L45.4592593,11.084878 C45.4592593,15.1546883 48.2772016,18.4212466 52.2116872,18.4212466 C54.3916049,18.4212466 55.8271605,17.7250949 57.3158848,16.4398916 C57.5817284,16.2256911 57.9539095,16.0114905 58.3792593,16.0114905 C59.2831276,16.0114905 60.0806584,16.7611924 60.0806584,17.6715447 C60.0806584,18.2070461 59.8148148,18.6889973 59.4958025,18.956748 C57.5817284,20.6703523 55.348642,21.741355 52.0521811,21.741355 C46.1504527,21.7949051 41.6842798,17.0824932 41.6842798,11.1919783 Z" id="Shape"></path>
                <path d="M62.7922634,2.4097561 C62.7922634,1.39230352 63.5897942,0.589051491 64.6,0.589051491 C65.6102058,0.589051491 66.4077366,1.39230352 66.4077366,2.4097561 L66.4077366,11.1384282 L76.1376132,1.28520325 C76.562963,0.856802168 76.9883128,0.589051491 77.6263374,0.589051491 C78.6365432,0.589051491 79.2745679,1.39230352 79.2745679,2.24910569 C79.2745679,2.78460705 79.061893,3.21300813 78.6365432,3.58785908 L72.2562963,9.7996748 L79.1682305,18.4747967 C79.4872428,18.8496477 79.646749,19.2244986 79.646749,19.76 C79.646749,20.7774526 78.8492181,21.5271545 77.8390123,21.5271545 C77.1478189,21.5271545 76.6693004,21.1523035 76.2971193,20.6703523 L69.7041975,12.2094309 L66.3545679,15.4759892 L66.3545679,19.76 C66.3545679,20.7774526 65.557037,21.5807046 64.5468313,21.5807046 C63.5366255,21.5807046 62.7390947,20.7774526 62.7390947,19.76 L62.7390947,2.4097561 L62.7922634,2.4097561 Z" id="Shape"></path>
                <path d="M82.1988477,2.51685637 C82.1988477,1.49940379 82.9963786,0.696151762 84.0065844,0.696151762 L84.3787654,0.696151762 C85.2826337,0.696151762 85.7611523,1.12455285 86.2396708,1.76715447 L96.5012346,15.1546883 L96.5012346,2.46330623 C96.5012346,1.49940379 97.2987654,0.696151762 98.2558025,0.696151762 C99.2660082,0.696151762 100.063539,1.49940379 100.063539,2.46330623 L100.063539,19.8135501 C100.063539,20.8310027 99.319177,21.6342547 98.3089712,21.6342547 L98.149465,21.6342547 C97.2987654,21.6342547 96.7670782,21.2058537 96.2885597,20.563252 L85.7611523,6.80086721 L85.7611523,19.8135501 C85.7611523,20.7774526 84.9636214,21.5807046 84.0065844,21.5807046 C82.9963786,21.5807046 82.1988477,20.7774526 82.1988477,19.8135501 L82.1988477,2.51685637 Z" id="Shape"></path>
                <path d="M102.987819,11.1919783 L102.987819,11.1384282 C102.987819,5.24791328 107.347654,0.428401084 113.568395,0.428401084 C116.758519,0.428401084 118.832099,1.39230352 120.586667,2.78460705 C120.958848,3.10590786 121.27786,3.58785908 121.27786,4.2304607 C121.27786,5.24791328 120.480329,5.99761518 119.470123,5.99761518 C118.991605,5.99761518 118.619424,5.83696477 118.406749,5.62276423 C117.024362,4.44466125 115.482469,3.74850949 113.515226,3.74850949 C109.633909,3.74850949 106.762798,7.01506775 106.762798,11.0313279 L106.762798,11.084878 C106.762798,15.1546883 109.580741,18.4212466 113.515226,18.4212466 C115.695144,18.4212466 117.1307,17.7250949 118.619424,16.4398916 C118.885267,16.2256911 119.257449,16.0114905 119.682798,16.0114905 C120.586667,16.0114905 121.384198,16.7611924 121.384198,17.6715447 C121.384198,18.2070461 121.118354,18.6889973 120.799342,18.956748 C118.885267,20.6703523 116.652181,21.741355 113.35572,21.741355 C107.453992,21.7949051 102.987819,17.0824932 102.987819,11.1919783 Z" id="Shape"></path>
                <path d="M122.553909,11.1919783 L122.553909,11.1384282 C122.553909,5.30146341 127.020082,0.428401084 133.293992,0.428401084 C139.567901,0.428401084 143.980905,5.24791328 143.980905,11.0313279 L143.980905,11.084878 C143.980905,16.9218428 139.514733,21.7949051 133.240823,21.7949051 C126.966914,21.7949051 122.553909,16.975393 122.553909,11.1919783 Z M140.259095,11.1919783 L140.259095,11.1384282 C140.259095,7.12216802 137.334815,3.80205962 133.293992,3.80205962 C129.253169,3.80205962 126.382058,7.06861789 126.382058,11.084878 L126.382058,11.1384282 C126.382058,15.1546883 129.306337,18.4747967 133.34716,18.4747967 C137.387984,18.4747967 140.259095,15.2082385 140.259095,11.1919783 Z" id="Shape"></path>
                <path d="M152.009383,20.2419512 L144.831605,3.21300813 C144.725267,2.94525745 144.61893,2.67750678 144.61893,2.35620596 C144.61893,1.39230352 145.416461,0.589051491 146.426667,0.589051491 C147.383704,0.589051491 147.96856,1.12455285 148.287572,1.87425474 L154.1893,16.7611924 L160.197366,1.71360434 C160.410041,1.07100271 161.101235,0.535501355 161.951934,0.535501355 C162.96214,0.535501355 163.759671,1.28520325 163.759671,2.30265583 C163.759671,2.5704065 163.653333,2.83815718 163.600165,3.05235772 L156.369218,20.1884011 C155.997037,21.0987534 155.305844,21.6878049 154.295638,21.6878049 L154.082963,21.6878049 C153.019588,21.741355 152.381564,21.2058537 152.009383,20.2419512 Z" id="Shape"></path>
                <path d="M166.045926,19.5993496 L166.045926,2.5704065 C166.045926,1.55295393 166.843457,0.749701897 167.853663,0.749701897 L179.763457,0.749701897 C180.667325,0.749701897 181.358519,1.49940379 181.358519,2.35620596 C181.358519,3.26655827 180.614156,3.96271003 179.763457,3.96271003 L169.60823,3.96271003 L169.60823,9.31772358 L178.434239,9.31772358 C179.338107,9.31772358 180.0293,10.0674255 180.0293,10.9777778 C180.0293,11.8881301 179.284938,12.5842818 178.434239,12.5842818 L169.60823,12.5842818 L169.60823,18.2070461 L179.922963,18.2070461 C180.826831,18.2070461 181.518025,18.956748 181.518025,19.8135501 C181.518025,20.7239024 180.773663,21.4200542 179.922963,21.4200542 L167.853663,21.4200542 C166.843457,21.4200542 166.045926,20.6703523 166.045926,19.5993496 Z" id="Shape"></path>
                <path d="M184.22963,2.62395664 C184.22963,1.60650407 185.02716,0.803252033 186.037366,0.803252033 L193.37465,0.803252033 C195.979918,0.803252033 198.000329,1.55295393 199.276379,2.89170732 C200.339753,4.01626016 200.977778,5.56921409 200.977778,7.33636856 L200.977778,7.3899187 C200.977778,10.7100271 199.063704,12.6913821 196.29893,13.5481843 L200.233416,18.5283469 C200.605597,18.956748 200.818272,19.3315989 200.818272,19.9206504 C200.818272,20.938103 199.967572,21.5807046 199.063704,21.5807046 C198.266173,21.5807046 197.734486,21.2058537 197.309136,20.6168022 L192.311276,14.1907859 L187.791934,14.1907859 L187.791934,19.8135501 C187.791934,20.8310027 186.994403,21.6342547 185.984198,21.6342547 C184.973992,21.6342547 184.176461,20.8310027 184.176461,19.8135501 L184.176461,2.62395664 L184.22963,2.62395664 Z M193.108807,11.0313279 C195.714074,11.0313279 197.309136,9.69257453 197.309136,7.55056911 L197.309136,7.49701897 C197.309136,5.30146341 195.714074,4.0698103 193.055638,4.0698103 L187.791934,4.0698103 L187.791934,11.0313279 L193.108807,11.0313279 Z" id="Shape"></path>
            </g>
            <g id="Group" stroke="#FFFFFF" stroke-width="0.8">
                <path d="M37.3569927,3.86338364 C36.0424668,1.93169182 34.0859631,0.633836378 31.7626149,0.150913423 C31.1817779,0.0301826847 30.6009408,0 30.0201038,0 C25.8625334,0 22.2246593,2.9579031 21.3992593,6.97220016 C21.1546964,8.14932486 21.1852667,9.23590151 21.3992593,10.3224782 C19.4121852,9.35663225 17.1499778,8.72279587 14.7654889,8.72279587 L14.7349186,8.72279587 C10.6384889,8.72279587 1.3450963,8.72279587 1.3450963,8.72279587 C1.3450963,8.72279587 1.3450963,8.72279587 1.3450963,8.72279587 C0.978251855,8.72279587 0.64197778,8.90389198 0.397414816,9.14535346 C0.152851852,9.38681493 0,9.74900715 0,10.0810167 C0,10.0810167 0,15.3629865 0,23.5123114 C0,27.7982526 1.49794815,31.4201747 4.31042224,34.1064337 C7.00061484,36.6719619 10.7607704,38 14.8877704,38 C14.8877704,38 14.8877704,38 14.8877704,38 C23.0806297,38 29.7144001,31.4503574 29.6838297,23.3312153 C29.6838297,22.395552 29.5921186,21.5202542 29.4086964,20.6449563 C30.8760742,22.0031771 33.168852,22.2446386 34.9113631,21.0976966 C33.4134149,18.9245433 32.8631483,18.0492454 32.2517408,17.1437649 C35.4310594,16.2986497 37.9989705,13.7029388 38.6715186,10.4130262 C39.1300742,8.17950755 38.6715186,5.79507546 37.3569927,3.86338364 Z M14.8877704,35.5853852 C7.70373336,35.5853852 2.65962223,30.6656076 2.65962223,23.6028594 C2.65962223,17.8681493 2.65962223,13.5218427 2.65962223,11.4996029 C5.3803852,11.4996029 11.5861704,11.4996029 14.7349186,11.4996029 L14.7654889,11.4996029 C21.4604001,11.4996029 26.9630668,16.8721207 26.9936371,23.4821287 C27.0547779,30.0921366 21.6132519,35.5552025 14.8877704,35.5853852 Z M36.0424668,9.86973789 C35.4616297,12.6767276 32.9548594,14.7291501 30.0506742,14.7291501 C29.6532594,14.7291501 29.2252742,14.6989674 28.8278594,14.6084194 C25.5262593,13.9444003 23.355763,10.7752184 24.0283112,7.4853058 C24.6091482,4.67831612 27.1159186,2.62589357 30.0201038,2.62589357 C30.4175186,2.62589357 30.8455038,2.65607625 31.2429186,2.74662431 C32.8325779,3.07863384 34.2388149,3.98411438 35.1253557,5.3121525 C36.0424668,6.67037331 36.3787409,8.30023828 36.0424668,9.86973789 Z" id="Shape"></path>
                <path d="M15.1653594,17.5429041 C15.1653594,17.5429041 15.1959405,17.5429041 15.1959405,17.5429041 C16.5415092,17.5429041 17.8564967,18.0470733 18.8962543,18.9071267 C19.4467141,19.3816389 20.3029851,19.3223249 20.7922828,18.7884987 C21.2815804,18.2546724 21.1898371,17.5132471 20.6393772,17.0387349 C19.110322,15.7931403 17.1837124,15.2 15.1959405,15.2 C15.1653594,15.2 15.1653594,15.2 15.1347783,15.2 C13.0552632,15.2 8.16228639,15.2 8.10112418,15.2 C8.10112418,15.2 8.10112418,15.2 8.10112418,15.2 C7.73415092,15.2 7.39775876,15.259314 7.15310992,15.4965701 C6.90846108,15.7338262 6.75555556,16.0303964 6.75555556,16.3862806 C6.75555556,16.4455946 6.75555556,21.5466009 6.75555556,23.2667077 C6.75555556,25.4316697 7.6424076,27.4186897 9.26320617,28.9608544 C10.8534236,30.4733621 12.9329388,31.2444444 15.1653594,31.2444444 C15.1959405,31.2444444 15.1959405,31.2444444 15.2265216,31.2444444 C17.1837124,31.2444444 19.110322,30.6216472 20.6087961,29.3760526 C21.159256,28.9015404 21.2509993,28.130458 20.7617017,27.5966318 C20.272404,27.0628055 19.4467141,26.9145204 18.8656731,27.3593756 C17.8564967,28.189772 16.5415092,28.5753132 15.1959405,28.5753132 C15.1959405,28.5753132 15.1653594,28.5753132 15.1653594,28.5753132 C13.6363042,28.5753132 12.2295734,28.100801 11.1286536,27.0924625 C10.0277338,26.054467 9.4466928,24.7199014 9.41611169,23.2370507 C9.41611169,22.0507702 9.41611169,19.2926679 9.41611169,17.6318751 C11.0980725,17.5725611 13.7892097,17.5429041 15.1653594,17.5429041 Z" id="Shape"></path>
                <path d="M33.3410082,8.44444444 C32.6427346,8.44444444 32.06084,9.02657939 32.0899348,9.72514133 C32.0899348,10.4237033 32.6718294,11.0058382 33.3701029,10.9767315 C34.0683765,10.9767315 34.6502711,10.3945965 34.6211764,9.69603459 C34.5920816,8.99747265 34.0392817,8.44444444 33.3410082,8.44444444 Z" id="Shape"></path>
            </g>
        </g>
    </g>
</svg>